<svg width="772" height="250" viewBox="0 0 772 250" fill="none" xmlns="http://www.w3.org/2000/svg">
  <!-- Gradient background -->
  <rect width="772" height="250" fill="url(#paint0_linear)"/>
  <defs>
    <linearGradient id="paint0_linear" x1="0" y1="0" x2="772" y2="250" gradientUnits="userSpaceOnUse">
      <stop stop-color="#FF6B6B"/>
      <stop offset="1" stop-color="#667EEA"/>
    </linearGradient>
  </defs>
  
  <!-- Heart shapes pattern -->
  <path fill-rule="evenodd" clip-rule="evenodd" d="M193 62.5C193 86.852 209.023 100 225 100C240.977 100 257 86.852 257 62.5C257 50 242.5 25 225 25C207.5 25 193 50 193 62.5Z" fill="white" fill-opacity="0.1"/>
  
  <!-- Plugin title -->
  <text x="50%" y="50%" dominant-baseline="middle" text-anchor="middle" font-family="Arial, sans-serif" font-size="48" font-weight="bold" fill="white">WP Match Free</text>
  
  <!-- Tagline -->
  <text x="50%" y="60%" dominant-baseline="middle" text-anchor="middle" font-family="Arial, sans-serif" font-size="24" fill="white">Powerful Dating Plugin for WordPress</text>
  
  <!-- Heart icon -->
  <svg x="338" y="30" width="96" height="96" viewBox="0 0 24 24">
    <path d="M12 21.35l-1.45-1.32C5.4 15.36 2 12.28 2 8.5 2 5.42 4.42 3 7.5 3c1.74 0 3.41.81 4.5 2.09C13.09 3.81 14.76 3 16.5 3 19.58 3 22 5.42 22 8.5c0 3.78-3.4 6.86-8.55 11.54L12 21.35z" fill="white"/>
  </svg>
</svg>